<?xml version="1.0" standalone="no"?><svg xmlns="http://www.w3.org/2000/svg" viewBox="0 0 1440 320"><path fill="#e9ecef" fill-opacity="1" d="M0,224L40,234.7C80,245,160,267,240,272C320,277,400,267,480,261.3C560,256,640,256,720,256C800,256,880,256,960,261.3C1040,267,1120,277,1200,282.7C1280,288,1360,288,1400,288L1440,288L1440,320L1400,320C1360,320,1280,320,1200,320C1120,320,1040,320,960,320C880,320,800,320,720,320C640,320,560,320,480,320C400,320,320,320,240,320C160,320,80,320,40,320L0,320Z"></path></svg>